<?xml version="1.0" standalone="no"?>
<svg viewBox="0 0 200 200" xmlns="http://www.w3.org/2000/svg">
  <path fill="#8A3FFC" d="M25.3,-47.7C30.8,-40.6,32,-29.9,33.4,-21.3C34.9,-12.8,36.6,-6.4,42.1,3.2C47.7,12.8,57.1,25.6,57.8,37.9C58.5,50.2,50.6,62.1,39.6,65.9C28.5,69.7,14.2,65.4,0.3,64.8C-13.6,64.3,-27.1,67.3,-41.5,65.4C-55.8,63.5,-71,56.7,-77.6,44.9C-84.2,33.2,-82.2,16.6,-79.1,1.8C-76,-13,-71.8,-26,-64.1,-35.9C-56.4,-45.7,-45.3,-52.4,-34,-56.2C-22.7,-60,-11.4,-60.8,-0.7,-59.5C9.9,-58.2,19.8,-54.8,25.3,-47.7Z" transform="translate(100 100)" />
</svg>
